PathFileType	4	(X/Y/Z)	C:/Users/opensim2020/Desktop/walking_exp_matlab/subject02_walking12_straight_04.trc																																																																																																																												
DataRate	CameraRate	NumFrames	NumMarkers	Units	OrigDataRate	OrigDataStartFrame	OrigNumFrames																																																																																																																								
100	100	9	42	mm	100	2071	125																																																																																																																								
Frame#	Time	LFHD			RFHD			LBHD			RBHD			C7			T10			CLAV			STRN			RBAK			LSHO			LUPA			LELB			LFRM			LWRA			LWRB			LFIN			RSHO			RUPA			RELB			RFRM			RWRA			RWRB			RFIN			LASI			RASI			LPSI			RPSI			LTHI			LKNE			LTIB			LANK			LHEE			LTOE			RTHI			RKNE			RTIB			RANK			RHEE			RTOE			*39			*40			*41		
		X1	Y1	Z1	X2	Y2	Z2	X3	Y3	Z3	X4	Y4	Z4	X5	Y5	Z5	X6	Y6	Z6	X7	Y7	Z7	X8	Y8	Z8	X9	Y9	Z9	X10	Y10	Z10	X11	Y11	Z11	X12	Y12	Z12	X13	Y13	Z13	X14	Y14	Z14	X15	Y15	Z15	X16	Y16	Z16	X17	Y17	Z17	X18	Y18	Z18	X19	Y19	Z19	X20	Y20	Z20	X21	Y21	Z21	X22	Y22	Z22	X23	Y23	Z23	X24	Y24	Z24	X25	Y25	Z25	X26	Y26	Z26	X27	Y27	Z27	X28	Y28	Z28	X29	Y29	Z29	X30	Y30	Z30	X31	Y31	Z31	X32	Y32	Z32	X33	Y33	Z33	X34	Y34	Z34	X35	Y35	Z35	X36	Y36	Z36	X37	Y37	Z37	X38	Y38	Z38	X39	Y39	Z39	X40	Y40	Z40	X41	Y41	Z41	X42	Y42	Z42
																																																																																																																															
79	0.78	313.16592	1704.84851	-1499.90479	292.4324	1680.48816	-1359.18225	185.44984	1630.74353	-1529.92151	153.10663	1605.60291	-1391.87842	118.07873	1485.7572	-1456.0293	80.25567	1204.46936	-1454.67114	258.46509	1420.3429	-1474.89771	320.23199	1253.88037	-1466.86462	70.38485	1304.80359	-1392.75562	175.63036	1459.57483	-1639.25818	101.73841	1269.21948	-1708.58936	55.24825	1137.78796	-1703.39148	3.78299	1019.85248	-1716.63745	-13.32099	880.30615	-1679.42566	-46.34233	904.72821	-1719.58337	-81.2791	844.4837	-1701.75525	200.1548	1450.77698	-1274.16028	208.17203	1263.81506	-1182.20068	268.45215	1130.20593	-1146.34802	368.4704	1059.802	-1143.31482	487.29337	1008.66876	-1175.64539	460.38162	968.17505	-1146.77649	530.66187	959.7619	-1144.23926	338.76349	965.62988	-1591.26379	316.56393	928.87732	-1336.78259	117.54103	996.35052	-1527.70227	107.3941	985.42584	-1413.63721	358.96155	674.9613	-1669.70544	409.70535	480.0766	-1639.81238	396.54514	288.49869	-1660.64404	421.71613	69.61372	-1631.87598	383.16891	41.6221	-1583.14172	578.0365	32.25404	-1632.94019	156.31511	645.2179	-1273.32227	98.71792	446.29861	-1291.48828	-49.36122	327.26797	-1291.45154	-179.83221	185.74252	-1324.95581	-230.90556	165.53215	-1386.13599	-110.05986	35.56295	-1315.76819	198.77768	1767.0802	-1423.02429	-2845.17725	1034.20581	3360.36328	NaN	NaN	NaN
80	0.79	327.89447	1705.49622	-1501.11621	306.44498	1681.02014	-1360.54895	199.62564	1632.37891	-1531.99915	166.73093	1607.19739	-1394.02075	131.65556	1486.87061	-1457.6283	94.0491	1205.36633	-1456.3916	272.16418	1421.70837	-1476.79504	334.422	1255.52722	-1469.22144	84.36545	1305.50159	-1394.66895	188.85945	1460.9364	-1641.01111	116.49009	1270.27942	-1711.58191	70.80277	1138.41736	-1707.15332	20.69883	1019.76526	-1720.75659	5.96175	880.19995	-1683.42383	-27.33093	903.52747	-1723.53333	-61.29767	842.78088	-1706.04236	214.17543	1451.76062	-1275.73279	219.40924	1264.30151	-1185.54907	278.75259	1129.87451	-1149.93188	378.70544	1058.7301	-1145.96997	497.25116	1007.04749	-1177.33167	469.57184	966.27527	-1149.0697	540.14795	958.02783	-1145.37305	352.84769	968.5	-1595.32373	332.35355	929.72552	-1342.66638	131.83971	997.92212	-1529.74268	123.08538	986.2099	-1414.04419	372.91888	674.82727	-1671.32568	421.27478	479.87076	-1640.92419	404.13931	288.92392	-1660.57703	422.40564	69.64476	-1631.57813	383.55887	41.51395	-1583.03845	578.77087	31.52913	-1632.86951	175.987	644.05518	-1275.76331	123.18612	444.28363	-1291.69324	-27.88277	330.30209	-1291.31323	-162.22742	193.19443	-1325.6001	-212.95193	177.43437	-1387.8291	-107.26869	36.54621	-1317.4552	213.56123	1768.3075	-1424.6355	-2845.24414	1034.20215	3360.43335	NaN	NaN	NaN
81	0.8	342.44916	1706.52832	-1502.61157	320.48267	1681.89746	-1361.83704	213.83385	1634.09729	-1533.77332	180.50357	1608.92944	-1395.78955	145.07831	1487.9978	-1459.01013	107.65757	1206.63843	-1458.24634	285.80267	1423.20337	-1478.48218	348.38779	1257.13367	-1471.27136	98.1865	1306.6156	-1396.43335	202.03825	1462.65222	-1642.46802	131.37555	1271.66919	-1714.32324	86.91842	1139.21619	-1710.9187	38.82148	1019.83484	-1724.93591	25.46125	879.57556	-1687.48572	-7.48437	902.83661	-1728.10254	-39.85713	840.99762	-1711.01233	228.12401	1453.23474	-1277.44507	231.51274	1264.87646	-1188.29907	289.69931	1130.28699	-1153.02368	388.17651	1057.92029	-1148.9458	506.45096	1005.08844	-1179.31274	478.27164	964.31848	-1151.54199	548.71777	955.72473	-1146.73474	366.56592	971.71204	-1598.92212	347.19998	930.6438	-1348.07922	146.07004	999.36218	-1531.44739	137.85953	987.01813	-1414.85876	386.66028	674.50903	-1672.54297	431.42212	479.93515	-1642.03003	408.58392	289.29037	-1660.06763	422.58893	69.83243	-1630.99451	383.71783	41.54406	-1582.74292	579.41479	31.15118	-1632.25183	196.25421	642.28235	-1278.08008	148.11807	442.26657	-1291.42981	-5.07383	332.79083	-1291.83606	-143.08614	200.18175	-1326.14709	-194.07018	188.71844	-1389.02173	-100.39281	39.96129	-1319.91956	228.33305	1769.91882	-1426.28601	-2845.17236	1034.19751	3360.38184	NaN	NaN	NaN
82	0.81	356.90833	1707.38062	-1503.69226	334.51392	1683.05237	-1362.90771	227.98549	1635.95605	-1535.28455	194.11028	1611.01404	-1397.32263	158.46634	1489.31494	-1460.37146	121.10314	1208.29016	-1460.07593	299.60623	1424.9812	-1480.04614	362.12451	1258.82617	-1472.9635	112.10806	1308.38599	-1397.32886	215.46617	1464.63196	-1643.68274	146.71359	1273.1178	-1716.72473	103.2553	1140.34192	-1714.91223	57.48785	1019.79907	-1728.89319	47.3392	879.58215	-1692.1333	13.49299	902.07458	-1732.67578	-16.62827	838.84906	-1716.15039	240.83163	1455.13953	-1279.4342	243.92664	1266.07361	-1190.68262	299.82059	1130.93909	-1156.42285	397.86163	1057.11438	-1151.76831	515.50061	1002.57867	-1181.28198	486.34155	962.16156	-1154.08801	556.12616	952.66534	-1148.52795	379.73764	974.92798	-1602.17529	361.44308	931.88373	-1353.00659	159.89517	1000.60681	-1532.93555	151.86238	988.09229	-1416.01733	399.56143	674.89343	-1673.64709	439.85925	479.84906	-1643.16321	410.90033	289.43866	-1658.81201	422.74081	69.79119	-1630.73999	383.65503	41.83731	-1582.28589	579.47778	30.96129	-1632.47217	216.47665	639.81909	-1280.0675	173.45984	439.99954	-1291.63269	18.89079	334.56494	-1292.40808	-123.52712	207.70088	-1327.37122	-174.84889	199.65935	-1390.75952	-89.02097	45.91392	-1322.96631	243.03418	1771.70972	-1427.71008	-2845.81641	1034.37781	3357.448	NaN	NaN	NaN
83	0.82	371.43045	1708.6842	-1504.63928	348.4957	1684.53345	-1363.90588	242.34183	1637.99329	-1536.42773	207.77275	1613.3031	-1398.72192	172.11801	1491.04858	-1461.88708	134.39642	1210.27319	-1461.83887	313.20029	1426.92041	-1481.25488	375.60226	1260.63525	-1474.28308	124.70777	1310.99646	-1399.25659	228.87848	1466.84863	-1644.7749	162.12108	1274.97717	-1719.2821	120.24828	1141.59009	-1718.71082	77.04443	1020.06049	-1733.44128	69.21521	879.60144	-1696.88867	35.66314	901.36145	-1737.16797	7.40448	837.49365	-1722.79456	254.06187	1457.05823	-1280.87793	255.68622	1267.4342	-1193.09717	310.43848	1131.79529	-1159.47461	406.99344	1056.32104	-1154.59119	523.63428	999.81506	-1183.57983	493.83377	959.7746	-1156.68604	563.29913	949.14996	-1150.32202	392.37219	978.16602	-1605.21338	375.12268	933.33374	-1357.06055	173.20569	1001.70886	-1534.38794	165.16945	989.51025	-1417.57678	411.70337	676.56299	-1674.92163	446.47745	479.25925	-1644.54236	411.60373	289.39658	-1656.89929	422.52985	69.70394	-1630.47815	383.58368	41.83609	-1582.20996	579.51154	30.7916	-1632.31128	237.16536	637.25079	-1282.08569	199.2151	438.07736	-1291.9353	43.41819	336.24982	-1292.46008	-103.09754	215.22557	-1329.70496	-154.06036	210.0618	-1393.43567	-73.95483	53.15337	-1323.09753	257.68796	1773.59827	-1428.95386	-2845.84106	1034.28552	3357.44336	NaN	NaN	NaN
84	0.83	386.01736	1710.08887	-1505.19299	362.45627	1686.22363	-1364.79077	256.47675	1640.26233	-1537.58875	221.42551	1615.82849	-1399.93933	185.42613	1493.28638	-1463.36243	147.54973	1212.53479	-1463.4801	326.67963	1429.04602	-1482.29834	388.8533	1262.56445	-1475.28247	138.05252	1313.34253	-1400.15601	242.41974	1469.25281	-1645.82129	177.67604	1277.11121	-1721.9165	137.89386	1142.85278	-1722.18005	97.12686	1020.38611	-1737.49365	92.99426	879.82916	-1701.57861	58.52309	901.05121	-1741.83752	33.05626	835.99396	-1729.09302	266.40457	1459.14282	-1282.45349	267.13281	1269.47278	-1195.40747	320.32086	1132.76233	-1162.68762	415.4407	1055.21094	-1157.41663	531.51807	996.50085	-1185.74939	500.74777	957.14215	-1159.17761	569.60498	944.82086	-1152.35046	404.84482	980.83691	-1607.79871	388.2627	934.95734	-1360.15491	186.01082	1003.0614	-1535.91858	177.80142	991.4433	-1419.44165	423.35428	678.53821	-1676.0946	451.66202	478.84146	-1645.81836	411.83987	289.58093	-1654.98718	422.50854	69.72388	-1630.32849	383.50739	41.67937	-1582.10474	579.43591	30.72623	-1632.34827	257.90604	635.17841	-1283.90308	224.94234	436.81424	-1292.38147	68.32992	338.06686	-1293.46167	-81.1068	222.37212	-1333.31604	-131.38676	217.9662	-1397.72888	-55.27449	60.43849	-1322.36267	272.32611	1775.82129	-1430.12244	NaN	NaN	NaN	NaN	NaN	NaN
85	0.84	400.34555	1711.9967	-1506.08765	376.29605	1688.03149	-1365.36206	270.36334	1642.75623	-1538.86511	234.96165	1618.38953	-1401.07605	198.96628	1495.89392	-1464.83899	160.457	1215.0343	-1464.98657	340.01309	1431.37524	-1483.12341	401.84763	1264.62415	-1476.07239	150.69287	1316.00085	-1401.34985	256.33774	1471.92041	-1646.80188	193.99695	1279.12036	-1724.05481	155.61328	1144.61279	-1726.16589	117.85688	1020.96436	-1741.73242	116.96633	880.6582	-1706.59143	82.18257	900.94165	-1746.5376	59.89597	834.77557	-1735.80823	279.17841	1461.22925	-1283.42383	279.01962	1271.08594	-1197.07813	330.11337	1133.72742	-1165.6875	423.77725	1054.21667	-1160.00598	538.98767	993.00708	-1187.98218	507.19788	954.46191	-1161.58252	575.73511	940.38037	-1154.63965	417.00418	983.02094	-1609.94116	400.84628	936.78314	-1362.17737	198.41722	1004.8573	-1537.61841	189.84148	993.96722	-1421.63513	434.49777	679.91748	-1676.86536	456.12833	478.94983	-1646.86194	412.31857	290.08673	-1654.04846	422.38348	69.70068	-1630.23828	383.2597	41.54129	-1582.33545	579.27026	30.76952	-1632.40723	278.26764	634.82446	-1285.63416	250.95183	437.00333	-1292.79321	93.64922	340.89471	-1295.59705	-57.84005	228.94576	-1337.87073	-107.82591	223.31412	-1403.25537	-33.3959	67.65231	-1322.25122	286.98303	1778.10938	-1431.02502	-2845.98853	1034.45483	3357.00684	NaN	NaN	NaN
86	0.85	414.58411	1713.72534	-1506.41125	390.13467	1690.00378	-1365.8175	284.46991	1645.30078	-1539.75122	248.5593	1621.07263	-1401.96277	212.4408	1498.68433	-1466.2218	173.05801	1217.76465	-1466.57043	353.17023	1433.79883	-1483.7594	414.69641	1266.88513	-1476.67578	163.3145	1318.91858	-1402.50256	270.46005	1474.75464	-1647.82361	210.4554	1281.3634	-1726.33606	174.03023	1146.36841	-1729.91125	139.14961	1021.6712	-1745.88318	142.01848	881.27216	-1711.38672	106.31593	901.2691	-1751.37244	87.8102	834.0838	-1742.81335	291.35483	1463.49585	-1284.51367	290.33948	1272.8772	-1198.73547	340.21097	1134.79041	-1168.48303	431.91113	1053.07068	-1162.43835	546.07068	989.3147	-1190.25769	513.19763	951.5105	-1163.90002	581.34961	935.24219	-1156.9895	429.03677	984.91779	-1611.5448	412.98132	939.16034	-1363.14575	211.02158	1007.15515	-1539.47412	201.33784	996.87347	-1423.94873	445.00308	680.95831	-1677.38477	460.69455	479.23108	-1647.81653	413.73923	290.88571	-1654.73767	422.21585	69.84772	-1630.15393	383.16876	41.44443	-1581.92554	579.08508	30.71869	-1632.49426	297.73038	635.84814	-1287.32214	276.80249	438.1777	-1293.78516	119.2811	344.26846	-1298.54724	-33.26097	234.16992	-1342.71289	-82.71852	227.03668	-1408.81458	-9.32666	73.66368	-1321.59033	301.36053	1780.51526	-1431.83081	NaN	NaN	NaN	NaN	NaN	NaN
87	0.86	428.8956	1715.66565	-1506.62927	403.92151	1692.14148	-1366.14319	298.56967	1647.9021	-1540.44116	262.05933	1623.83643	-1402.84521	225.7382	1501.54675	-1467.53625	185.60689	1220.5553	-1468.28369	366.22559	1436.23499	-1484.2135	427.31934	1269.13	-1477.13672	175.84706	1321.72644	-1403.86279	284.72839	1477.73206	-1648.83398	227.33078	1283.75488	-1728.65564	193.14745	1147.97363	-1733.40625	161.15375	1022.65613	-1750.21655	167.42856	882.48712	-1716.14563	131.33392	901.67578	-1756.04102	116.76724	833.83545	-1749.83838	303.02679	1465.78882	-1285.71069	301.79541	1274.68188	-1199.86597	350.1373	1135.91736	-1171.17651	440.53	1052.45618	-1164.6637	552.72589	985.41748	-1192.48547	518.86749	948.72345	-1165.79456	586.53302	929.9895	-1159.59314	441.12454	986.57849	-1612.55225	424.56274	942.05988	-1363.2052	223.05705	1009.78998	-1541.40723	212.45308	999.75751	-1426.38428	454.17725	681.52551	-1677.8313	465.20166	479.53345	-1648.62573	416.19165	291.79739	-1656.60022	422.1485	69.95901	-1630.14453	382.87646	41.45665	-1582.31897	578.95007	30.72981	-1632.62268	317.18973	637.75653	-1288.9563	302.34491	440.25467	-1295.26135	145.19165	347.384	-1301.70715	-7.41112	237.79965	-1347.2854	-56.48468	229.08557	-1414.30151	16.78213	78.77339	-1321.09912	315.68045	1782.96252	-1432.46082	-2845.77783	1034.21423	3356.70239	NaN	NaN	NaN
